<svg xmlns="http://www.w3.org/2000/svg" xmlns:xlink="http://www.w3.org/1999/xlink" version="1.1" class="marks" width="1012" height="596" viewBox="0 0 1012 596"><rect width="1012" height="596" fill="white"/><g fill="none" stroke-miterlimit="10" transform="translate(45,33)"><g class="mark-group role-frame root" role="graphics-object" aria-roledescription="group mark container"><g transform="translate(0,0)"><path class="background" aria-hidden="true" d="M0,0h850v500h-850Z" stroke="#ddd" stroke-width="0"/><g><g class="mark-group role-axis" role="graphics-symbol" aria-roledescription="axis" aria-label="X-axis titled 'Assay Date (2023)' for a time scale with values from March 01 to May 22"><g transform="translate(0.5,500.5)"><path class="background" aria-hidden="true" d="M0,0h0v0h0Z" pointer-events="none"/><g><g class="mark-rule role-axis-tick" pointer-events="none"><line transform="translate(20,0)" x2="0" y2="5" stroke="#888" stroke-width="1" opacity="1"/><line transform="translate(92,0)" x2="0" y2="5" stroke="#888" stroke-width="1" opacity="1"/><line transform="translate(163,0)" x2="0" y2="5" stroke="#888" stroke-width="1" opacity="1"/><line transform="translate(235,0)" x2="0" y2="5" stroke="#888" stroke-width="1" opacity="1"/><line transform="translate(307,0)" x2="0" y2="5" stroke="#888" stroke-width="1" opacity="1"/><line transform="translate(379,0)" x2="0" y2="5" stroke="#888" stroke-width="1" opacity="1"/><line transform="translate(450,0)" x2="0" y2="5" stroke="#888" stroke-width="1" opacity="1"/><line transform="translate(522,0)" x2="0" y2="5" stroke="#888" stroke-width="1" opacity="1"/><line transform="translate(594,0)" x2="0" y2="5" stroke="#888" stroke-width="1" opacity="1"/><line transform="translate(666,0)" x2="0" y2="5" stroke="#888" stroke-width="1" opacity="1"/><line transform="translate(738,0)" x2="0" y2="5" stroke="#888" stroke-width="1" opacity="1"/><line transform="translate(810,0)" x2="0" y2="5" stroke="#888" stroke-width="1" opacity="1"/></g><g class="mark-text role-axis-label" pointer-events="none"><text text-anchor="end" transform="translate(19.734704949744454,7) rotate(315) translate(0,9)" font-family="sans-serif" font-size="11px" fill="#2c2c2c" opacity="1">Mar 03</text><text text-anchor="end" transform="translate(91.59177046786907,7) rotate(315) translate(0,9)" font-family="sans-serif" font-size="11px" fill="#2c2c2c" opacity="1">Mar 10</text><text text-anchor="end" transform="translate(163.02111535790962,7) rotate(315) translate(0,9)" font-family="sans-serif" font-size="11px" fill="#2c2c2c" opacity="1">Mar 17</text><text text-anchor="end" transform="translate(234.87818087603426,7) rotate(315) translate(0,9)" font-family="sans-serif" font-size="11px" fill="#2c2c2c" opacity="1">Mar 24</text><text text-anchor="end" transform="translate(306.7352463941589,7) rotate(315) translate(0,9)" font-family="sans-serif" font-size="11px" fill="#2c2c2c" opacity="1">Mar 31</text><text text-anchor="end" transform="translate(378.5923119122835,7) rotate(315) translate(0,9)" font-family="sans-serif" font-size="11px" fill="#2c2c2c" opacity="1">Apr 07</text><text text-anchor="end" transform="translate(450.4493774304081,7) rotate(315) translate(0,9)" font-family="sans-serif" font-size="11px" fill="#2c2c2c" opacity="1">Apr 14</text><text text-anchor="end" transform="translate(522.3064429485328,7) rotate(315) translate(0,9)" font-family="sans-serif" font-size="11px" fill="#2c2c2c" opacity="1">Apr 21</text><text text-anchor="end" transform="translate(594.1635084666574,7) rotate(315) translate(0,9)" font-family="sans-serif" font-size="11px" fill="#2c2c2c" opacity="1">Apr 28</text><text text-anchor="end" transform="translate(666.020573984782,7) rotate(315) translate(0,9)" font-family="sans-serif" font-size="11px" fill="#2c2c2c" opacity="1">May 05</text><text text-anchor="end" transform="translate(737.8776395029066,7) rotate(315) translate(0,9)" font-family="sans-serif" font-size="11px" fill="#2c2c2c" opacity="1">May 12</text><text text-anchor="end" transform="translate(809.7347050210312,7) rotate(315) translate(0,9)" font-family="sans-serif" font-size="11px" fill="#2c2c2c" opacity="1">May 19</text></g><g class="mark-rule role-axis-domain" pointer-events="none"><line transform="translate(0,0)" x2="850" y2="0" stroke="#888" stroke-width="1" opacity="1"/></g><g class="mark-text role-axis-title" pointer-events="none"><text text-anchor="middle" transform="translate(425,54.28511822925191)" font-family="sans-serif" font-size="13px" font-weight="bold" fill="#2c2c2c" opacity="1">Assay Date (2023)</text></g></g><path class="foreground" aria-hidden="true" d="" pointer-events="none" display="none"/></g></g><g class="mark-group role-axis" role="graphics-symbol" aria-roledescription="axis" aria-label="Y-axis titled 'Z' Factor' for a linear scale with values from 0.0 to 1.0"><g transform="translate(0.5,0.5)"><path class="background" aria-hidden="true" d="M0,0h0v0h0Z" pointer-events="none"/><g><g class="mark-rule role-axis-tick" pointer-events="none"><line transform="translate(0,500)" x2="-5" y2="0" stroke="#888" stroke-width="1" opacity="1"/><line transform="translate(0,450)" x2="-5" y2="0" stroke="#888" stroke-width="1" opacity="1"/><line transform="translate(0,400)" x2="-5" y2="0" stroke="#888" stroke-width="1" opacity="1"/><line transform="translate(0,350)" x2="-5" y2="0" stroke="#888" stroke-width="1" opacity="1"/><line transform="translate(0,300)" x2="-5" y2="0" stroke="#888" stroke-width="1" opacity="1"/><line transform="translate(0,250)" x2="-5" y2="0" stroke="#888" stroke-width="1" opacity="1"/><line transform="translate(0,200)" x2="-5" y2="0" stroke="#888" stroke-width="1" opacity="1"/><line transform="translate(0,150)" x2="-5" y2="0" stroke="#888" stroke-width="1" opacity="1"/><line transform="translate(0,100)" x2="-5" y2="0" stroke="#888" stroke-width="1" opacity="1"/><line transform="translate(0,50)" x2="-5" y2="0" stroke="#888" stroke-width="1" opacity="1"/><line transform="translate(0,0)" x2="-5" y2="0" stroke="#888" stroke-width="1" opacity="1"/></g><g class="mark-text role-axis-label" pointer-events="none"><text text-anchor="end" transform="translate(-7,503)" font-family="sans-serif" font-size="11px" fill="#2c2c2c" opacity="1">0.0</text><text text-anchor="end" transform="translate(-7,453)" font-family="sans-serif" font-size="11px" fill="#2c2c2c" opacity="1">0.1</text><text text-anchor="end" transform="translate(-7,403)" font-family="sans-serif" font-size="11px" fill="#2c2c2c" opacity="1">0.2</text><text text-anchor="end" transform="translate(-7,353)" font-family="sans-serif" font-size="11px" fill="#2c2c2c" opacity="1">0.3</text><text text-anchor="end" transform="translate(-7,303)" font-family="sans-serif" font-size="11px" fill="#2c2c2c" opacity="1">0.4</text><text text-anchor="end" transform="translate(-7,253)" font-family="sans-serif" font-size="11px" fill="#2c2c2c" opacity="1">0.5</text><text text-anchor="end" transform="translate(-7,203)" font-family="sans-serif" font-size="11px" fill="#2c2c2c" opacity="1">0.6</text><text text-anchor="end" transform="translate(-7,153.00000000000003)" font-family="sans-serif" font-size="11px" fill="#2c2c2c" opacity="1">0.7</text><text text-anchor="end" transform="translate(-7,102.99999999999997)" font-family="sans-serif" font-size="11px" fill="#2c2c2c" opacity="1">0.8</text><text text-anchor="end" transform="translate(-7,52.999999999999986)" font-family="sans-serif" font-size="11px" fill="#2c2c2c" opacity="1">0.9</text><text text-anchor="end" transform="translate(-7,3)" font-family="sans-serif" font-size="11px" fill="#2c2c2c" opacity="1">1.0</text></g><g class="mark-rule role-axis-domain" pointer-events="none"><line transform="translate(0,500)" x2="0" y2="-500" stroke="#888" stroke-width="1" opacity="1"/></g><g class="mark-text role-axis-title" pointer-events="none"><text text-anchor="middle" transform="translate(-26.29150390625,250) rotate(-90) translate(0,-3)" font-family="sans-serif" font-size="13px" font-weight="bold" fill="#2c2c2c" opacity="1">Z' Factor</text></g></g><path class="foreground" aria-hidden="true" d="" pointer-events="none" display="none"/></g></g><g class="mark-symbol role-mark layer_0_marks" role="graphics-object" aria-roledescription="symbol mark container"><a xlink:href="https://demo.elabftw.net/experiments.php?mode=view&amp;id=1"><path aria-label="date: Mar 04; z_prime: 0.25; test_condition: Control A; std_dev: 0.120; Date: Mar 04; Z' Factor: 0.25; Std Dev: 0.120; Test Condition: Control A; Assay ID: ASY-001; Status: Below Target; eln_url: https://demo.elabftw.net/experiments.php?mode=view&amp;id=1" role="graphics-symbol" aria-roledescription="circle" transform="translate(30.000000023762258,375)" d="M7.746,0A7.746,7.746,0,1,1,-7.746,0A7.746,7.746,0,1,1,7.746,0" fill="#003087" stroke-width="2" opacity="0.8"/></a><a xlink:href="https://demo.elabftw.net/experiments.php?mode=view&amp;id=2"><path aria-label="date: Mar 11; z_prime: 0.32; test_condition: Control A; std_dev: 0.100; Date: Mar 11; Z' Factor: 0.32; Std Dev: 0.100; Test Condition: Control A; Assay ID: ASY-002; Status: Below Target; eln_url: https://demo.elabftw.net/experiments.php?mode=view&amp;id=2" role="graphics-symbol" aria-roledescription="circle" transform="translate(101.42934491380281,339.99999999999994)" d="M7.071,0A7.071,7.071,0,1,1,-7.071,0A7.071,7.071,0,1,1,7.071,0" fill="#003087" stroke-width="2" opacity="0.8"/></a><a xlink:href="https://demo.elabftw.net/experiments.php?mode=view&amp;id=3"><path aria-label="date: Mar 18; z_prime: 0.48; test_condition: Control A; std_dev: 0.080; Date: Mar 18; Z' Factor: 0.48; Std Dev: 0.080; Test Condition: Control A; Assay ID: ASY-003; Status: Below Target; eln_url: https://demo.elabftw.net/experiments.php?mode=view&amp;id=3" role="graphics-symbol" aria-roledescription="circle" transform="translate(173.2864104319274,260)" d="M6.325,0A6.325,6.325,0,1,1,-6.325,0A6.325,6.325,0,1,1,6.325,0" fill="#003087" stroke-width="2" opacity="0.8"/></a><a xlink:href="https://demo.elabftw.net/experiments.php?mode=view&amp;id=4"><path aria-label="date: Mar 25; z_prime: 0.15; test_condition: Control B; std_dev: 0.150; Date: Mar 25; Z' Factor: 0.15; Std Dev: 0.150; Test Condition: Control B; Assay ID: ASY-004; Status: Below Target; eln_url: https://demo.elabftw.net/experiments.php?mode=view&amp;id=4" role="graphics-symbol" aria-roledescription="circle" transform="translate(245.14347595005208,425)" d="M8.66,0A8.66,8.66,0,1,1,-8.66,0A8.66,8.66,0,1,1,8.66,0" fill="#00a3b5" stroke-width="2" opacity="0.8"/></a><a xlink:href="https://demo.elabftw.net/experiments.php?mode=view&amp;id=5"><path aria-label="date: Apr 01; z_prime: 0.18; test_condition: Control B; std_dev: 0.140; Date: Apr 01; Z' Factor: 0.18; Std Dev: 0.140; Test Condition: Control B; Assay ID: ASY-005; Status: Below Target; eln_url: https://demo.elabftw.net/experiments.php?mode=view&amp;id=5" role="graphics-symbol" aria-roledescription="circle" transform="translate(317.00054146817666,410.00000000000006)" d="M8.367,0A8.367,8.367,0,1,1,-8.367,0A8.367,8.367,0,1,1,8.367,0" fill="#00a3b5" stroke-width="2" opacity="0.8"/></a><a xlink:href="https://demo.elabftw.net/experiments.php?mode=view&amp;id=6"><path aria-label="date: Apr 08; z_prime: 0.22; test_condition: Control B; std_dev: 0.130; Date: Apr 08; Z' Factor: 0.22; Std Dev: 0.130; Test Condition: Control B; Assay ID: ASY-006; Status: Below Target; eln_url: https://demo.elabftw.net/experiments.php?mode=view&amp;id=6" role="graphics-symbol" aria-roledescription="circle" transform="translate(388.8576069863013,390)" d="M8.062,0A8.062,8.062,0,1,1,-8.062,0A8.062,8.062,0,1,1,8.062,0" fill="#00a3b5" stroke-width="2" opacity="0.8"/></a><a xlink:href="https://demo.elabftw.net/experiments.php?mode=view&amp;id=7"><path aria-label="date: Apr 15; z_prime: 0.38; test_condition: No passaging; std_dev: 0.180; Date: Apr 15; Z' Factor: 0.38; Std Dev: 0.180; Test Condition: No passaging; Assay ID: ASY-007; Status: Below Target; eln_url: https://demo.elabftw.net/experiments.php?mode=view&amp;id=7" role="graphics-symbol" aria-roledescription="circle" transform="translate(460.7146725044259,310)" d="M9.487,0A9.487,9.487,0,1,1,-9.487,0A9.487,9.487,0,1,1,9.487,0" fill="#76bc21" stroke-width="2" opacity="0.8"/></a><a xlink:href="https://demo.elabftw.net/experiments.php?mode=view&amp;id=8"><path aria-label="date: Apr 22; z_prime: 0.42; test_condition: No passaging; std_dev: 0.200; Date: Apr 22; Z' Factor: 0.42; Std Dev: 0.200; Test Condition: No passaging; Assay ID: ASY-008; Status: Below Target; eln_url: https://demo.elabftw.net/experiments.php?mode=view&amp;id=8" role="graphics-symbol" aria-roledescription="circle" transform="translate(532.5717380225506,290.00000000000006)" d="M10,0A10,10,0,1,1,-10,0A10,10,0,1,1,10,0" fill="#76bc21" stroke-width="2" opacity="0.8"/></a><a xlink:href="https://demo.elabftw.net/experiments.php?mode=view&amp;id=9"><path aria-label="date: Apr 29; z_prime: 0.35; test_condition: No passaging; std_dev: 0.220; Date: Apr 29; Z' Factor: 0.35; Std Dev: 0.220; Test Condition: No passaging; Assay ID: ASY-009; Status: Below Target; eln_url: https://demo.elabftw.net/experiments.php?mode=view&amp;id=9" role="graphics-symbol" aria-roledescription="circle" transform="translate(604.4288035406752,325)" d="M10.488,0A10.488,10.488,0,1,1,-10.488,0A10.488,10.488,0,1,1,10.488,0" fill="#76bc21" stroke-width="2" opacity="0.8"/></a><a xlink:href="https://demo.elabftw.net/experiments.php?mode=view&amp;id=10"><path aria-label="date: May 06; z_prime: 0.55; test_condition: Control C; std_dev: 0.070; Date: May 06; Z' Factor: 0.55; Std Dev: 0.070; Test Condition: Control C; Assay ID: ASY-010; Status: Good; eln_url: https://demo.elabftw.net/experiments.php?mode=view&amp;id=10" role="graphics-symbol" aria-roledescription="circle" transform="translate(676.2858690587998,224.99999999999997)" d="M5.916,0A5.916,5.916,0,1,1,-5.916,0A5.916,5.916,0,1,1,5.916,0" fill="#ff6f31" stroke-width="2" opacity="0.8"/></a><a xlink:href="https://demo.elabftw.net/experiments.php?mode=view&amp;id=11"><path aria-label="date: May 13; z_prime: 0.58; test_condition: Control C; std_dev: 0.060; Date: May 13; Z' Factor: 0.58; Std Dev: 0.060; Test Condition: Control C; Assay ID: ASY-011; Status: Good; eln_url: https://demo.elabftw.net/experiments.php?mode=view&amp;id=11" role="graphics-symbol" aria-roledescription="circle" transform="translate(748.1429345769244,210.00000000000003)" d="M5.477,0A5.477,5.477,0,1,1,-5.477,0A5.477,5.477,0,1,1,5.477,0" fill="#ff6f31" stroke-width="2" opacity="0.8"/></a><a xlink:href="https://demo.elabftw.net/experiments.php?mode=view&amp;id=12"><path aria-label="date: May 20; z_prime: 0.64; test_condition: Control C; std_dev: 0.050; Date: May 20; Z' Factor: 0.64; Std Dev: 0.050; Test Condition: Control C; Assay ID: ASY-012; Status: Good; eln_url: https://demo.elabftw.net/experiments.php?mode=view&amp;id=12" role="graphics-symbol" aria-roledescription="circle" transform="translate(820.000000095049,180)" d="M5,0A5,5,0,1,1,-5,0A5,5,0,1,1,5,0" fill="#ff6f31" stroke-width="2" opacity="0.8"/></a></g><g class="mark-rule role-mark layer_1_marks" role="graphics-object" aria-roledescription="rule mark container"><line aria-label="y: 0.5" role="graphics-symbol" aria-roledescription="rule mark" transform="translate(850,250)" x2="-850" y2="0" stroke="#ff6f31" stroke-width="2" stroke-dasharray="5,5"/></g><g class="mark-text role-mark layer_2_marks" role="graphics-object" aria-roledescription="text mark container"><text aria-label="x: May 20, 2024; y: 0.52; text: Target: 0.5" role="graphics-symbol" aria-roledescription="text mark" text-anchor="end" transform="translate(820.000000095049,243)" font-family="sans-serif" font-size="11px" fill="#ff6f31">Target: 0.5</text></g><g class="mark-group role-legend" role="graphics-symbol" aria-roledescription="legend" aria-label="Symbol legend titled 'Test Condition' for fill color with 4 values: Control A, Control B, No passaging, Control C"><g transform="translate(868,0)"><path class="background" aria-hidden="true" d="M5.5,0.5L88.5,0.5C91.25957512247,0.5,93.5,2.74042487753,93.5,5.5L93.5,77.5C93.5,80.25957512247,91.25957512247,82.5,88.5,82.5L5.5,82.5C2.74042487753,82.5,0.5,80.25957512247,0.5,77.5L0.5,5.5C0.5,2.74042487753,2.74042487753,0.5,5.5,0.5Z" pointer-events="none" fill="#f9f9f9" stroke="gray"/><g><g class="mark-group role-legend-entry"><g transform="translate(8,24)"><path class="background" aria-hidden="true" d="M0,0h0v0h0Z" pointer-events="none"/><g><g class="mark-group role-scope" role="graphics-object" aria-roledescription="group mark container"><g transform="translate(0,0)"><path class="background" aria-hidden="true" d="M0,0h71.037109375v11h-71.037109375Z" pointer-events="none" opacity="1"/><g><g class="mark-symbol role-legend-symbol" pointer-events="none"><path transform="translate(6,6)" d="M5,0A5,5,0,1,1,-5,0A5,5,0,1,1,5,0" fill="#003087" stroke-width="1.5" opacity="0.8"/></g><g class="mark-text role-legend-label" pointer-events="none"><text text-anchor="start" transform="translate(16,9)" font-family="sans-serif" font-size="9px" fill="#000" opacity="1">Control A</text></g></g><path class="foreground" aria-hidden="true" d="" pointer-events="none" display="none"/></g><g transform="translate(0,13)"><path class="background" aria-hidden="true" d="M0,0h71.037109375v11h-71.037109375Z" pointer-events="none" opacity="1"/><g><g class="mark-symbol role-legend-symbol" pointer-events="none"><path transform="translate(6,6)" d="M5,0A5,5,0,1,1,-5,0A5,5,0,1,1,5,0" fill="#00a3b5" stroke-width="1.5" opacity="0.8"/></g><g class="mark-text role-legend-label" pointer-events="none"><text text-anchor="start" transform="translate(16,9)" font-family="sans-serif" font-size="9px" fill="#000" opacity="1">Control B</text></g></g><path class="foreground" aria-hidden="true" d="" pointer-events="none" display="none"/></g><g transform="translate(0,26)"><path class="background" aria-hidden="true" d="M0,0h71.037109375v11h-71.037109375Z" pointer-events="none" opacity="1"/><g><g class="mark-symbol role-legend-symbol" pointer-events="none"><path transform="translate(6,6)" d="M5,0A5,5,0,1,1,-5,0A5,5,0,1,1,5,0" fill="#76bc21" stroke-width="1.5" opacity="0.8"/></g><g class="mark-text role-legend-label" pointer-events="none"><text text-anchor="start" transform="translate(16,9)" font-family="sans-serif" font-size="9px" fill="#000" opacity="1">No passaging</text></g></g><path class="foreground" aria-hidden="true" d="" pointer-events="none" display="none"/></g><g transform="translate(0,39)"><path class="background" aria-hidden="true" d="M0,0h71.037109375v11h-71.037109375Z" pointer-events="none" opacity="1"/><g><g class="mark-symbol role-legend-symbol" pointer-events="none"><path transform="translate(6,6)" d="M5,0A5,5,0,1,1,-5,0A5,5,0,1,1,5,0" fill="#ff6f31" stroke-width="1.5" opacity="0.8"/></g><g class="mark-text role-legend-label" pointer-events="none"><text text-anchor="start" transform="translate(16,9)" font-family="sans-serif" font-size="9px" fill="#000" opacity="1">Control C</text></g></g><path class="foreground" aria-hidden="true" d="" pointer-events="none" display="none"/></g></g></g><path class="foreground" aria-hidden="true" d="" pointer-events="none" display="none"/></g></g><g class="mark-text role-legend-title" pointer-events="none"><text text-anchor="start" transform="translate(8,17)" font-family="sans-serif" font-size="11px" font-weight="bold" fill="#000" opacity="1">Test Condition</text></g></g><path class="foreground" aria-hidden="true" d="" pointer-events="none" display="none"/></g></g><g class="mark-group role-legend" role="graphics-symbol" aria-roledescription="legend" aria-label="Symbol legend titled 'Std Dev' for size with values from 0.030 to 0.120"><g transform="translate(868,90)"><path class="background" aria-hidden="true" d="M5.5,0.5L55.5,0.5C58.25957512247,0.5,60.5,2.74042487753,60.5,5.5L60.5,116.5C60.5,119.25957512247,58.25957512247,121.5,55.5,121.5L5.5,121.5C2.74042487753,121.5,0.5,119.25957512247,0.5,116.5L0.5,5.5C0.5,2.74042487753,2.74042487753,0.5,5.5,0.5Z" pointer-events="none" fill="#f9f9f9" stroke="gray"/><g><g class="mark-group role-legend-entry"><g transform="translate(8,24)"><path class="background" aria-hidden="true" d="M0,0h0v0h0Z" pointer-events="none"/><g><g class="mark-group role-scope" role="graphics-object" aria-roledescription="group mark container"><g transform="translate(0,0)"><path class="background" aria-hidden="true" d="M0,0h43.52197265625v11.47213595499958h-43.52197265625Z" pointer-events="none" opacity="1"/><g><g class="mark-symbol role-legend-symbol" pointer-events="none"><path transform="translate(8.5,5.5)" d="M4.472,0A4.472,4.472,0,1,1,-4.472,0A4.472,4.472,0,1,1,4.472,0" fill="black" fill-opacity="0.8" stroke-width="1.5" opacity="0.8"/></g><g class="mark-text role-legend-label" pointer-events="none"><text text-anchor="start" transform="translate(21,8.5)" font-family="sans-serif" font-size="9px" fill="#000" opacity="1">0.040</text></g></g><path class="foreground" aria-hidden="true" d="" pointer-events="none" display="none"/></g><g transform="translate(0,15)"><path class="background" aria-hidden="true" d="M0,0h43.52197265625v13.477225575051662h-43.52197265625Z" pointer-events="none" opacity="1"/><g><g class="mark-symbol role-legend-symbol" pointer-events="none"><path transform="translate(8.5,6.5)" d="M5.477,0A5.477,5.477,0,1,1,-5.477,0A5.477,5.477,0,1,1,5.477,0" fill="black" fill-opacity="0.8" stroke-width="1.5" opacity="0.8"/></g><g class="mark-text role-legend-label" pointer-events="none"><text text-anchor="start" transform="translate(21,9.5)" font-family="sans-serif" font-size="9px" fill="#000" opacity="1">0.060</text></g></g><path class="foreground" aria-hidden="true" d="" pointer-events="none" display="none"/></g><g transform="translate(0,32)"><path class="background" aria-hidden="true" d="M0,0h43.52197265625v15.324555320336756h-43.52197265625Z" pointer-events="none" opacity="1"/><g><g class="mark-symbol role-legend-symbol" pointer-events="none"><path transform="translate(8.5,7.5)" d="M6.325,0A6.325,6.325,0,1,1,-6.325,0A6.325,6.325,0,1,1,6.325,0" fill="black" fill-opacity="0.8" stroke-width="1.5" opacity="0.8"/></g><g class="mark-text role-legend-label" pointer-events="none"><text text-anchor="start" transform="translate(21,10.5)" font-family="sans-serif" font-size="9px" fill="#000" opacity="1">0.080</text></g></g><path class="foreground" aria-hidden="true" d="" pointer-events="none" display="none"/></g><g transform="translate(0,51)"><path class="background" aria-hidden="true" d="M0,0h43.52197265625v16.571067811865476h-43.52197265625Z" pointer-events="none" opacity="1"/><g><g class="mark-symbol role-legend-symbol" pointer-events="none"><path transform="translate(8.5,8)" d="M7.071,0A7.071,7.071,0,1,1,-7.071,0A7.071,7.071,0,1,1,7.071,0" fill="black" fill-opacity="0.8" stroke-width="1.5" opacity="0.8"/></g><g class="mark-text role-legend-label" pointer-events="none"><text text-anchor="start" transform="translate(21,11)" font-family="sans-serif" font-size="9px" fill="#000" opacity="1">0.100</text></g></g><path class="foreground" aria-hidden="true" d="" pointer-events="none" display="none"/></g><g transform="translate(0,71)"><path class="background" aria-hidden="true" d="M0,0h43.52197265625v17.74596669241484h-43.52197265625Z" pointer-events="none" opacity="1"/><g><g class="mark-symbol role-legend-symbol" pointer-events="none"><path transform="translate(8.5,8.5)" d="M7.746,0A7.746,7.746,0,1,1,-7.746,0A7.746,7.746,0,1,1,7.746,0" fill="black" fill-opacity="0.8" stroke-width="1.5" opacity="0.8"/></g><g class="mark-text role-legend-label" pointer-events="none"><text text-anchor="start" transform="translate(21,11.5)" font-family="sans-serif" font-size="9px" fill="#000" opacity="1">0.120</text></g></g><path class="foreground" aria-hidden="true" d="" pointer-events="none" display="none"/></g></g></g><path class="foreground" aria-hidden="true" d="" pointer-events="none" display="none"/></g></g><g class="mark-text role-legend-title" pointer-events="none"><text text-anchor="start" transform="translate(8,17)" font-family="sans-serif" font-size="11px" font-weight="bold" fill="#000" opacity="1">Std Dev</text></g></g><path class="foreground" aria-hidden="true" d="" pointer-events="none" display="none"/></g></g><g class="mark-group role-title"><g transform="translate(425,-28)"><path class="background" aria-hidden="true" d="M0,0h0v0h0Z" pointer-events="none"/><g><g class="mark-text role-title-text" role="graphics-symbol" aria-roledescription="title" aria-label="Title text 'Z' Factor Performance Over Time'" pointer-events="none"><text text-anchor="middle" transform="translate(0,14)" font-family="sans-serif" font-size="18px" font-weight="bold" fill="#003087" opacity="1">Z' Factor Performance Over Time</text></g></g><path class="foreground" aria-hidden="true" d="" pointer-events="none" display="none"/></g></g></g><path class="foreground" aria-hidden="true" d="" display="none"/></g></g></g></svg>