<svg xmlns="http://www.w3.org/2000/svg" xmlns:xlink="http://www.w3.org/1999/xlink" version="1.1" class="marks" width="1012" height="573" viewBox="0 0 1012 573"><rect width="1012" height="573" fill="white"/><g fill="none" stroke-miterlimit="10" transform="translate(45,33)"><g class="mark-group role-frame root" role="graphics-object" aria-roledescription="group mark container"><g transform="translate(0,0)"><path class="background" aria-hidden="true" d="M0,0h850v500h-850Z" stroke="#ddd" stroke-width="0"/><g><g class="mark-group role-axis" role="graphics-symbol" aria-roledescription="axis" aria-label="X-axis titled 'Assay Date (2026)' for a time scale with values from December to August"><g transform="translate(0.5,500.5)"><path class="background" aria-hidden="true" d="M0,0h0v0h0Z" pointer-events="none"/><g><g class="mark-rule role-axis-tick" pointer-events="none"><line transform="translate(25,0)" x2="0" y2="5" stroke="#888" stroke-width="1" opacity="1"/><line transform="translate(141,0)" x2="0" y2="5" stroke="#888" stroke-width="1" opacity="1"/><line transform="translate(250,0)" x2="0" y2="5" stroke="#888" stroke-width="1" opacity="1"/><line transform="translate(367,0)" x2="0" y2="5" stroke="#888" stroke-width="1" opacity="1"/><line transform="translate(479,0)" x2="0" y2="5" stroke="#888" stroke-width="1" opacity="1"/><line transform="translate(596,0)" x2="0" y2="5" stroke="#888" stroke-width="1" opacity="1"/><line transform="translate(709,0)" x2="0" y2="5" stroke="#888" stroke-width="1" opacity="1"/><line transform="translate(825,0)" x2="0" y2="5" stroke="#888" stroke-width="1" opacity="1"/></g><g class="mark-text role-axis-label" pointer-events="none"><text text-anchor="middle" transform="translate(25,16)" font-family="sans-serif" font-size="11px" fill="#2c2c2c" opacity="1">Jan</text><text text-anchor="middle" transform="translate(141.4547055370769,16)" font-family="sans-serif" font-size="11px" fill="#2c2c2c" opacity="1">Feb</text><text text-anchor="middle" transform="translate(250.39620426531013,16)" font-family="sans-serif" font-size="11px" fill="#2c2c2c" opacity="1">Mar</text><text text-anchor="middle" transform="translate(366.6943846605361,16)" font-family="sans-serif" font-size="11px" fill="#2c2c2c" opacity="1">Apr</text><text text-anchor="middle" transform="translate(479.39248679319115,16)" font-family="sans-serif" font-size="11px" fill="#2c2c2c" opacity="1">May</text><text text-anchor="middle" transform="translate(595.8471923302681,16)" font-family="sans-serif" font-size="11px" fill="#2c2c2c" opacity="1">Jun</text><text text-anchor="middle" transform="translate(708.5452944629232,16)" font-family="sans-serif" font-size="11px" fill="#2c2c2c" opacity="1">Jul</text><text text-anchor="middle" transform="translate(825,16)" font-family="sans-serif" font-size="11px" fill="#2c2c2c" opacity="1">Aug</text></g><g class="mark-rule role-axis-domain" pointer-events="none"><line transform="translate(0,0)" x2="850" y2="0" stroke="#888" stroke-width="1" opacity="1"/></g><g class="mark-text role-axis-title" pointer-events="none"><text text-anchor="middle" transform="translate(425,32)" font-family="sans-serif" font-size="13px" font-weight="bold" fill="#2c2c2c" opacity="1">Assay Date (2026)</text></g></g><path class="foreground" aria-hidden="true" d="" pointer-events="none" display="none"/></g></g><g class="mark-group role-axis" role="graphics-symbol" aria-roledescription="axis" aria-label="Y-axis titled 'Z' Factor' for a linear scale with values from 0.0 to 1.0"><g transform="translate(0.5,0.5)"><path class="background" aria-hidden="true" d="M0,0h0v0h0Z" pointer-events="none"/><g><g class="mark-rule role-axis-tick" pointer-events="none"><line transform="translate(0,500)" x2="-5" y2="0" stroke="#888" stroke-width="1" opacity="1"/><line transform="translate(0,450)" x2="-5" y2="0" stroke="#888" stroke-width="1" opacity="1"/><line transform="translate(0,400)" x2="-5" y2="0" stroke="#888" stroke-width="1" opacity="1"/><line transform="translate(0,350)" x2="-5" y2="0" stroke="#888" stroke-width="1" opacity="1"/><line transform="translate(0,300)" x2="-5" y2="0" stroke="#888" stroke-width="1" opacity="1"/><line transform="translate(0,250)" x2="-5" y2="0" stroke="#888" stroke-width="1" opacity="1"/><line transform="translate(0,200)" x2="-5" y2="0" stroke="#888" stroke-width="1" opacity="1"/><line transform="translate(0,150)" x2="-5" y2="0" stroke="#888" stroke-width="1" opacity="1"/><line transform="translate(0,100)" x2="-5" y2="0" stroke="#888" stroke-width="1" opacity="1"/><line transform="translate(0,50)" x2="-5" y2="0" stroke="#888" stroke-width="1" opacity="1"/><line transform="translate(0,0)" x2="-5" y2="0" stroke="#888" stroke-width="1" opacity="1"/></g><g class="mark-text role-axis-label" pointer-events="none"><text text-anchor="end" transform="translate(-7,503)" font-family="sans-serif" font-size="11px" fill="#2c2c2c" opacity="1">0.0</text><text text-anchor="end" transform="translate(-7,453)" font-family="sans-serif" font-size="11px" fill="#2c2c2c" opacity="1">0.1</text><text text-anchor="end" transform="translate(-7,403)" font-family="sans-serif" font-size="11px" fill="#2c2c2c" opacity="1">0.2</text><text text-anchor="end" transform="translate(-7,353)" font-family="sans-serif" font-size="11px" fill="#2c2c2c" opacity="1">0.3</text><text text-anchor="end" transform="translate(-7,303)" font-family="sans-serif" font-size="11px" fill="#2c2c2c" opacity="1">0.4</text><text text-anchor="end" transform="translate(-7,253)" font-family="sans-serif" font-size="11px" fill="#2c2c2c" opacity="1">0.5</text><text text-anchor="end" transform="translate(-7,203)" font-family="sans-serif" font-size="11px" fill="#2c2c2c" opacity="1">0.6</text><text text-anchor="end" transform="translate(-7,153.00000000000003)" font-family="sans-serif" font-size="11px" fill="#2c2c2c" opacity="1">0.7</text><text text-anchor="end" transform="translate(-7,102.99999999999997)" font-family="sans-serif" font-size="11px" fill="#2c2c2c" opacity="1">0.8</text><text text-anchor="end" transform="translate(-7,52.999999999999986)" font-family="sans-serif" font-size="11px" fill="#2c2c2c" opacity="1">0.9</text><text text-anchor="end" transform="translate(-7,3)" font-family="sans-serif" font-size="11px" fill="#2c2c2c" opacity="1">1.0</text></g><g class="mark-rule role-axis-domain" pointer-events="none"><line transform="translate(0,500)" x2="0" y2="-500" stroke="#888" stroke-width="1" opacity="1"/></g><g class="mark-text role-axis-title" pointer-events="none"><text text-anchor="middle" transform="translate(-26.29150390625,250) rotate(-90) translate(0,-3)" font-family="sans-serif" font-size="13px" font-weight="bold" fill="#2c2c2c" opacity="1">Z' Factor</text></g></g><path class="foreground" aria-hidden="true" d="" pointer-events="none" display="none"/></g></g><g class="mark-symbol role-mark layer_0_marks" role="graphics-object" aria-roledescription="symbol mark container"><a xlink:href="https://demo.elabftw.net/experiments.php?mode=view&amp;id=1"><path aria-label="date (year-month): Jan; z_prime: 0.35; test_condition: Control A; std_dev: 0.120; Date: Jan 15; Z' Factor: 0.35; Std Dev: 0.120; Test Condition: Control A; Assay ID: ASY-001; Status: Below Target; eln_url: https://demo.elabftw.net/experiments.php?mode=view&amp;id=1" role="graphics-symbol" aria-roledescription="circle" transform="translate(25,325)" d="M7.746,0A7.746,7.746,0,1,1,-7.746,0A7.746,7.746,0,1,1,7.746,0" fill="#003087" stroke-width="2" opacity="0.8"/></a><a xlink:href="https://demo.elabftw.net/experiments.php?mode=view&amp;id=2"><path aria-label="date (year-month): Jan; z_prime: 0.42; test_condition: Control A; std_dev: 0.100; Date: Jan 28; Z' Factor: 0.42; Std Dev: 0.100; Test Condition: Control A; Assay ID: ASY-002; Status: Below Target; eln_url: https://demo.elabftw.net/experiments.php?mode=view&amp;id=2" role="graphics-symbol" aria-roledescription="circle" transform="translate(25,290.00000000000006)" d="M7.071,0A7.071,7.071,0,1,1,-7.071,0A7.071,7.071,0,1,1,7.071,0" fill="#003087" stroke-width="2" opacity="0.8"/></a><a xlink:href="https://demo.elabftw.net/experiments.php?mode=view&amp;id=3"><path aria-label="date (year-month): Feb; z_prime: 0.58; test_condition: Control A; std_dev: 0.080; Date: Feb 12; Z' Factor: 0.58; Std Dev: 0.080; Test Condition: Control A; Assay ID: ASY-003; Status: Good; eln_url: https://demo.elabftw.net/experiments.php?mode=view&amp;id=3" role="graphics-symbol" aria-roledescription="circle" transform="translate(141.4547055370769,210.00000000000003)" d="M6.325,0A6.325,6.325,0,1,1,-6.325,0A6.325,6.325,0,1,1,6.325,0" fill="#003087" stroke-width="2" opacity="0.8"/></a><a xlink:href="https://demo.elabftw.net/experiments.php?mode=view&amp;id=4"><path aria-label="date (year-month): Feb; z_prime: 0.65; test_condition: Control B; std_dev: 0.070; Date: Feb 25; Z' Factor: 0.65; Std Dev: 0.070; Test Condition: Control B; Assay ID: ASY-004; Status: Good; eln_url: https://demo.elabftw.net/experiments.php?mode=view&amp;id=4" role="graphics-symbol" aria-roledescription="circle" transform="translate(141.4547055370769,175)" d="M5.916,0A5.916,5.916,0,1,1,-5.916,0A5.916,5.916,0,1,1,5.916,0" fill="#00a3b5" stroke-width="2" opacity="0.8"/></a><a xlink:href="https://demo.elabftw.net/experiments.php?mode=view&amp;id=5"><path aria-label="date (year-month): Mar; z_prime: 0.68; test_condition: Control B; std_dev: 0.060; Date: Mar 10; Z' Factor: 0.68; Std Dev: 0.060; Test Condition: Control B; Assay ID: ASY-005; Status: Good; eln_url: https://demo.elabftw.net/experiments.php?mode=view&amp;id=5" role="graphics-symbol" aria-roledescription="circle" transform="translate(250.39620426531013,159.99999999999997)" d="M5.477,0A5.477,5.477,0,1,1,-5.477,0A5.477,5.477,0,1,1,5.477,0" fill="#00a3b5" stroke-width="2" opacity="0.8"/></a><a xlink:href="https://demo.elabftw.net/experiments.php?mode=view&amp;id=6"><path aria-label="date (year-month): Apr; z_prime: 0.74; test_condition: Control B; std_dev: 0.050; Date: Apr 05; Z' Factor: 0.74; Std Dev: 0.050; Test Condition: Control B; Assay ID: ASY-006; Status: Excellent; eln_url: https://demo.elabftw.net/experiments.php?mode=view&amp;id=6" role="graphics-symbol" aria-roledescription="circle" transform="translate(366.6943846605361,130)" d="M5,0A5,5,0,1,1,-5,0A5,5,0,1,1,5,0" fill="#00a3b5" stroke-width="2" opacity="0.8"/></a><a xlink:href="https://demo.elabftw.net/experiments.php?mode=view&amp;id=7"><path aria-label="date (year-month): May; z_prime: 0.78; test_condition: Modified pH; std_dev: 0.055; Date: May 08; Z' Factor: 0.78; Std Dev: 0.055; Test Condition: Modified pH; Assay ID: ASY-007; Status: Excellent; eln_url: https://demo.elabftw.net/experiments.php?mode=view&amp;id=7" role="graphics-symbol" aria-roledescription="circle" transform="translate(479.39248679319115,109.99999999999999)" d="M5.244,0A5.244,5.244,0,1,1,-5.244,0A5.244,5.244,0,1,1,5.244,0" fill="#76bc21" stroke-width="2" opacity="0.8"/></a><a xlink:href="https://demo.elabftw.net/experiments.php?mode=view&amp;id=8"><path aria-label="date (year-month): Jun; z_prime: 0.8; test_condition: Modified pH; std_dev: 0.045; Date: Jun 03; Z' Factor: 0.80; Std Dev: 0.045; Test Condition: Modified pH; Assay ID: ASY-008; Status: Excellent; eln_url: https://demo.elabftw.net/experiments.php?mode=view&amp;id=8" role="graphics-symbol" aria-roledescription="circle" transform="translate(595.8471923302681,99.99999999999997)" d="M4.743,0A4.743,4.743,0,1,1,-4.743,0A4.743,4.743,0,1,1,4.743,0" fill="#76bc21" stroke-width="2" opacity="0.8"/></a><a xlink:href="https://demo.elabftw.net/experiments.php?mode=view&amp;id=9"><path aria-label="date (year-month): Jun; z_prime: 0.85; test_condition: Modified pH; std_dev: 0.040; Date: Jun 20; Z' Factor: 0.85; Std Dev: 0.040; Test Condition: Modified pH; Assay ID: ASY-009; Status: Excellent; eln_url: https://demo.elabftw.net/experiments.php?mode=view&amp;id=9" role="graphics-symbol" aria-roledescription="circle" transform="translate(595.8471923302681,75.00000000000001)" d="M4.472,0A4.472,4.472,0,1,1,-4.472,0A4.472,4.472,0,1,1,4.472,0" fill="#76bc21" stroke-width="2" opacity="0.8"/></a><a xlink:href="https://demo.elabftw.net/experiments.php?mode=view&amp;id=10"><path aria-label="date (year-month): Jul; z_prime: 0.77; test_condition: High Serum; std_dev: 0.048; Date: Jul 02; Z' Factor: 0.77; Std Dev: 0.048; Test Condition: High Serum; Assay ID: ASY-010; Status: Excellent; eln_url: https://demo.elabftw.net/experiments.php?mode=view&amp;id=10" role="graphics-symbol" aria-roledescription="circle" transform="translate(708.5452944629232,114.99999999999999)" d="M4.899,0A4.899,4.899,0,1,1,-4.899,0A4.899,4.899,0,1,1,4.899,0" fill="#ff6f31" stroke-width="2" opacity="0.8"/></a><a xlink:href="https://demo.elabftw.net/experiments.php?mode=view&amp;id=11"><path aria-label="date (year-month): Jul; z_prime: 0.82; test_condition: High Serum; std_dev: 0.042; Date: Jul 18; Z' Factor: 0.82; Std Dev: 0.042; Test Condition: High Serum; Assay ID: ASY-011; Status: Excellent; eln_url: https://demo.elabftw.net/experiments.php?mode=view&amp;id=11" role="graphics-symbol" aria-roledescription="circle" transform="translate(708.5452944629232,90.00000000000003)" d="M4.583,0A4.583,4.583,0,1,1,-4.583,0A4.583,4.583,0,1,1,4.583,0" fill="#ff6f31" stroke-width="2" opacity="0.8"/></a><a xlink:href="https://demo.elabftw.net/experiments.php?mode=view&amp;id=12"><path aria-label="date (year-month): Aug; z_prime: 0.88; test_condition: High Serum; std_dev: 0.035; Date: Aug 05; Z' Factor: 0.88; Std Dev: 0.035; Test Condition: High Serum; Assay ID: ASY-012; Status: Excellent; eln_url: https://demo.elabftw.net/experiments.php?mode=view&amp;id=12" role="graphics-symbol" aria-roledescription="circle" transform="translate(825,60)" d="M4.183,0A4.183,4.183,0,1,1,-4.183,0A4.183,4.183,0,1,1,4.183,0" fill="#ff6f31" stroke-width="2" opacity="0.8"/></a></g><g class="mark-rule role-mark layer_1_marks" role="graphics-object" aria-roledescription="rule mark container"><line aria-label="y: 0.5" role="graphics-symbol" aria-roledescription="rule mark" transform="translate(850,250)" x2="-850" y2="0" stroke="#ff6f31" stroke-width="2" stroke-dasharray="5,5"/></g><g class="mark-text role-mark layer_2_marks" role="graphics-object" aria-roledescription="text mark container"><text aria-label="x (year-month): Aug 2024; y: 0.52; text: Target: 0.5" role="graphics-symbol" aria-roledescription="text mark" text-anchor="end" transform="translate(825,243)" font-family="sans-serif" font-size="11px" fill="#ff6f31">Target: 0.5</text></g><g class="mark-group role-legend" role="graphics-symbol" aria-roledescription="legend" aria-label="Symbol legend titled 'Test Condition' for fill color with 4 values: Control A, Control B, Modified pH, High Serum"><g transform="translate(868,0)"><path class="background" aria-hidden="true" d="M5.5,0.5L88.5,0.5C91.25957512247,0.5,93.5,2.74042487753,93.5,5.5L93.5,77.5C93.5,80.25957512247,91.25957512247,82.5,88.5,82.5L5.5,82.5C2.74042487753,82.5,0.5,80.25957512247,0.5,77.5L0.5,5.5C0.5,2.74042487753,2.74042487753,0.5,5.5,0.5Z" pointer-events="none" fill="#f9f9f9" stroke="gray"/><g><g class="mark-group role-legend-entry"><g transform="translate(8,24)"><path class="background" aria-hidden="true" d="M0,0h0v0h0Z" pointer-events="none"/><g><g class="mark-group role-scope" role="graphics-object" aria-roledescription="group mark container"><g transform="translate(0,0)"><path class="background" aria-hidden="true" d="M0,0h64.0234375v11h-64.0234375Z" pointer-events="none" opacity="1"/><g><g class="mark-symbol role-legend-symbol" pointer-events="none"><path transform="translate(6,6)" d="M5,0A5,5,0,1,1,-5,0A5,5,0,1,1,5,0" fill="#003087" stroke-width="1.5" opacity="0.8"/></g><g class="mark-text role-legend-label" pointer-events="none"><text text-anchor="start" transform="translate(16,9)" font-family="sans-serif" font-size="9px" fill="#000" opacity="1">Control A</text></g></g><path class="foreground" aria-hidden="true" d="" pointer-events="none" display="none"/></g><g transform="translate(0,13)"><path class="background" aria-hidden="true" d="M0,0h64.0234375v11h-64.0234375Z" pointer-events="none" opacity="1"/><g><g class="mark-symbol role-legend-symbol" pointer-events="none"><path transform="translate(6,6)" d="M5,0A5,5,0,1,1,-5,0A5,5,0,1,1,5,0" fill="#00a3b5" stroke-width="1.5" opacity="0.8"/></g><g class="mark-text role-legend-label" pointer-events="none"><text text-anchor="start" transform="translate(16,9)" font-family="sans-serif" font-size="9px" fill="#000" opacity="1">Control B</text></g></g><path class="foreground" aria-hidden="true" d="" pointer-events="none" display="none"/></g><g transform="translate(0,26)"><path class="background" aria-hidden="true" d="M0,0h64.0234375v11h-64.0234375Z" pointer-events="none" opacity="1"/><g><g class="mark-symbol role-legend-symbol" pointer-events="none"><path transform="translate(6,6)" d="M5,0A5,5,0,1,1,-5,0A5,5,0,1,1,5,0" fill="#76bc21" stroke-width="1.5" opacity="0.8"/></g><g class="mark-text role-legend-label" pointer-events="none"><text text-anchor="start" transform="translate(16,9)" font-family="sans-serif" font-size="9px" fill="#000" opacity="1">Modified pH</text></g></g><path class="foreground" aria-hidden="true" d="" pointer-events="none" display="none"/></g><g transform="translate(0,39)"><path class="background" aria-hidden="true" d="M0,0h64.0234375v11h-64.0234375Z" pointer-events="none" opacity="1"/><g><g class="mark-symbol role-legend-symbol" pointer-events="none"><path transform="translate(6,6)" d="M5,0A5,5,0,1,1,-5,0A5,5,0,1,1,5,0" fill="#ff6f31" stroke-width="1.5" opacity="0.8"/></g><g class="mark-text role-legend-label" pointer-events="none"><text text-anchor="start" transform="translate(16,9)" font-family="sans-serif" font-size="9px" fill="#000" opacity="1">High Serum</text></g></g><path class="foreground" aria-hidden="true" d="" pointer-events="none" display="none"/></g></g></g><path class="foreground" aria-hidden="true" d="" pointer-events="none" display="none"/></g></g><g class="mark-text role-legend-title" pointer-events="none"><text text-anchor="start" transform="translate(8,17)" font-family="sans-serif" font-size="11px" font-weight="bold" fill="#000" opacity="1">Test Condition</text></g></g><path class="foreground" aria-hidden="true" d="" pointer-events="none" display="none"/></g></g><g class="mark-group role-legend" role="graphics-symbol" aria-roledescription="legend" aria-label="Symbol legend titled 'Std Dev' for size with values from 0.030 to 0.120"><g transform="translate(868,90)"><path class="background" aria-hidden="true" d="M5.5,0.5L55.5,0.5C58.25957512247,0.5,60.5,2.74042487753,60.5,5.5L60.5,116.5C60.5,119.25957512247,58.25957512247,121.5,55.5,121.5L5.5,121.5C2.74042487753,121.5,0.5,119.25957512247,0.5,116.5L0.5,5.5C0.5,2.74042487753,2.74042487753,0.5,5.5,0.5Z" pointer-events="none" fill="#f9f9f9" stroke="gray"/><g><g class="mark-group role-legend-entry"><g transform="translate(8,24)"><path class="background" aria-hidden="true" d="M0,0h0v0h0Z" pointer-events="none"/><g><g class="mark-group role-scope" role="graphics-object" aria-roledescription="group mark container"><g transform="translate(0,0)"><path class="background" aria-hidden="true" d="M0,0h43.52197265625v11.47213595499958h-43.52197265625Z" pointer-events="none" opacity="1"/><g><g class="mark-symbol role-legend-symbol" pointer-events="none"><path transform="translate(8.5,5.5)" d="M4.472,0A4.472,4.472,0,1,1,-4.472,0A4.472,4.472,0,1,1,4.472,0" fill="black" fill-opacity="0.8" stroke-width="1.5" opacity="0.8"/></g><g class="mark-text role-legend-label" pointer-events="none"><text text-anchor="start" transform="translate(21,8.5)" font-family="sans-serif" font-size="9px" fill="#000" opacity="1">0.040</text></g></g><path class="foreground" aria-hidden="true" d="" pointer-events="none" display="none"/></g><g transform="translate(0,15)"><path class="background" aria-hidden="true" d="M0,0h43.52197265625v13.477225575051662h-43.52197265625Z" pointer-events="none" opacity="1"/><g><g class="mark-symbol role-legend-symbol" pointer-events="none"><path transform="translate(8.5,6.5)" d="M5.477,0A5.477,5.477,0,1,1,-5.477,0A5.477,5.477,0,1,1,5.477,0" fill="black" fill-opacity="0.8" stroke-width="1.5" opacity="0.8"/></g><g class="mark-text role-legend-label" pointer-events="none"><text text-anchor="start" transform="translate(21,9.5)" font-family="sans-serif" font-size="9px" fill="#000" opacity="1">0.060</text></g></g><path class="foreground" aria-hidden="true" d="" pointer-events="none" display="none"/></g><g transform="translate(0,32)"><path class="background" aria-hidden="true" d="M0,0h43.52197265625v15.324555320336756h-43.52197265625Z" pointer-events="none" opacity="1"/><g><g class="mark-symbol role-legend-symbol" pointer-events="none"><path transform="translate(8.5,7.5)" d="M6.325,0A6.325,6.325,0,1,1,-6.325,0A6.325,6.325,0,1,1,6.325,0" fill="black" fill-opacity="0.8" stroke-width="1.5" opacity="0.8"/></g><g class="mark-text role-legend-label" pointer-events="none"><text text-anchor="start" transform="translate(21,10.5)" font-family="sans-serif" font-size="9px" fill="#000" opacity="1">0.080</text></g></g><path class="foreground" aria-hidden="true" d="" pointer-events="none" display="none"/></g><g transform="translate(0,51)"><path class="background" aria-hidden="true" d="M0,0h43.52197265625v16.571067811865476h-43.52197265625Z" pointer-events="none" opacity="1"/><g><g class="mark-symbol role-legend-symbol" pointer-events="none"><path transform="translate(8.5,8)" d="M7.071,0A7.071,7.071,0,1,1,-7.071,0A7.071,7.071,0,1,1,7.071,0" fill="black" fill-opacity="0.8" stroke-width="1.5" opacity="0.8"/></g><g class="mark-text role-legend-label" pointer-events="none"><text text-anchor="start" transform="translate(21,11)" font-family="sans-serif" font-size="9px" fill="#000" opacity="1">0.100</text></g></g><path class="foreground" aria-hidden="true" d="" pointer-events="none" display="none"/></g><g transform="translate(0,71)"><path class="background" aria-hidden="true" d="M0,0h43.52197265625v17.74596669241484h-43.52197265625Z" pointer-events="none" opacity="1"/><g><g class="mark-symbol role-legend-symbol" pointer-events="none"><path transform="translate(8.5,8.5)" d="M7.746,0A7.746,7.746,0,1,1,-7.746,0A7.746,7.746,0,1,1,7.746,0" fill="black" fill-opacity="0.8" stroke-width="1.5" opacity="0.8"/></g><g class="mark-text role-legend-label" pointer-events="none"><text text-anchor="start" transform="translate(21,11.5)" font-family="sans-serif" font-size="9px" fill="#000" opacity="1">0.120</text></g></g><path class="foreground" aria-hidden="true" d="" pointer-events="none" display="none"/></g></g></g><path class="foreground" aria-hidden="true" d="" pointer-events="none" display="none"/></g></g><g class="mark-text role-legend-title" pointer-events="none"><text text-anchor="start" transform="translate(8,17)" font-family="sans-serif" font-size="11px" font-weight="bold" fill="#000" opacity="1">Std Dev</text></g></g><path class="foreground" aria-hidden="true" d="" pointer-events="none" display="none"/></g></g><g class="mark-group role-title"><g transform="translate(425,-28)"><path class="background" aria-hidden="true" d="M0,0h0v0h0Z" pointer-events="none"/><g><g class="mark-text role-title-text" role="graphics-symbol" aria-roledescription="title" aria-label="Title text 'Z' Factor Performance Over Time'" pointer-events="none"><text text-anchor="middle" transform="translate(0,14)" font-family="sans-serif" font-size="18px" font-weight="bold" fill="#003087" opacity="1">Z' Factor Performance Over Time</text></g></g><path class="foreground" aria-hidden="true" d="" pointer-events="none" display="none"/></g></g></g><path class="foreground" aria-hidden="true" d="" display="none"/></g></g></g></svg>