<svg xmlns="http://www.w3.org/2000/svg" version="1.1" viewBox="-5.0 -10.0 110.0 135.0">
 <path d="m25.129 27.742h40.617c1.2031 0 2.1797-0.98047 2.1797-2.1797v-9.9688c0-1.2031-0.98047-2.1797-2.1797-2.1797l-40.617-0.003906c-1.2031 0-2.1797 0.98047-2.1797 2.1797v9.9688c0 1.207 0.97656 2.1836 2.1797 2.1836zm0.91016-11.238h38.797v8.1484h-38.797zm29.922 20.797c0.85547 0 1.5469 0.69141 1.5469 1.5469 0 0.85547-0.69141 1.5469-1.5469 1.5469h-21.035c-0.85547 0-1.5469-0.69141-1.5469-1.5469 0-0.85547 0.69141-1.5469 1.5469-1.5469zm-33.012 13.336c0-0.85547 0.69141-1.5469 1.5469-1.5469h38.832c0.85547 0 1.5469 0.69141 1.5469 1.5469s-0.69141 1.5469-1.5469 1.5469h-38.836c-0.85156-0.003906-1.543-0.69531-1.543-1.5469zm0 11.781c0-0.85547 0.69141-1.5469 1.5469-1.5469h32.238c0.85547 0 1.5469 0.69141 1.5469 1.5469s-0.69141 1.5469-1.5469 1.5469h-32.242c-0.85156 0-1.543-0.69141-1.543-1.5469zm35.727 11.789c0 0.85547-0.69141 1.5469-1.5469 1.5469h-32.637c-0.85547 0-1.5469-0.69141-1.5469-1.5469s0.69141-1.5469 1.5469-1.5469h32.637c0.85547 0.003906 1.5469 0.69531 1.5469 1.5469zm38.285-52.023-4.1484-2.3945c-2.3359-1.3477-5.2578-0.67969-6.5195 1.4961l-6.7578 11.703v-27.996c0-2.1211-1.7266-3.8477-3.8477-3.8477h-60.5c-2.1172 0-3.8438 1.7266-3.8438 3.8477v6.9922h-6.9961c-2.1172 0-3.8438 1.7266-3.8438 3.8477v79.18c0 2.1172 1.7227 3.8438 3.8438 3.8438h60.508c2.1172 0 3.8438-1.7227 3.8438-3.8438l-0.003907-6.9922h6.9922c2.1211 0 3.8477-1.7266 3.8477-3.8477v-22.012l19.387-33.578c1.2578-2.1797 0.375-5.0469-1.9609-6.3984zm-5.6953 0.28125 4.1484 2.3945c0.84766 0.48828 1.2305 1.4844 0.83203 2.1758l-1.8086 3.1289-7.2773-4.1992 1.8086-3.1328c0.39844-0.6875 1.4492-0.85547 2.2969-0.36719zm-14.625 38.527c-0.003906 0.007812-0.007813 0.015624-0.011719 0.019531l-4.0781 7.0664-2.3008-1.3281 20.344-35.234 2.3008 1.3281zm-11.328 11.219-0.38281-4.9648 4.8711 2.8125zm20.305-43.57 2.3008 1.3281-20.344 35.234-2.2969-1.3281zm-20.012 66.371c0 0.40625-0.34375 0.75-0.75 0.75l-60.508 0.003906c-0.40625 0-0.75-0.34375-0.75-0.75v-79.18c0-0.41016 0.34375-0.75781 0.75-0.75781h7v69.094c0 2.1211 1.7227 3.8477 3.8438 3.8477h50.418zm10.84-10.84c0 0.41016-0.34766 0.75781-0.75781 0.75781h-60.5c-0.41406 0-0.75-0.33984-0.75-0.75781v-79.18c0-0.41797 0.33594-0.75781 0.75-0.75781h60.504c0.41016 0 0.75781 0.34766 0.75781 0.75781v33.355l-14.535 25.168c-0.22266 0.375-0.31641 0.78516-0.28125 1.2266l0.69141 8.9531c0.054687 0.72266 0.47266 1.3789 1.1016 1.7422 0.35156 0.21094 0.74609 0.31641 1.1445 0.31641 0.32031 0 0.64453-0.070312 0.94531-0.21094l8.1055-3.8828c0.375-0.17969 0.67969-0.44922 0.89844-0.80859 0.007813-0.011718 0.011719-0.023437 0.019531-0.03125l1.9062-3.3008z"/>
<text x="0.0" y="117.5" font-size="5.0" font-weight="bold" font-family="Arbeit Regular, Helvetica, Arial-Unicode, Arial, Sans-serif" fill="#000000">Created by nangicon</text><text x="0.0" y="122.5" font-size="5.0" font-weight="bold" font-family="Arbeit Regular, Helvetica, Arial-Unicode, Arial, Sans-serif" fill="#000000">from Noun Project</text></svg>